<?xml version="1.0" encoding="utf-8"?>
<!-- Generator: Adobe Illustrator 19.2.1, SVG Export Plug-In . SVG Version: 6.00 Build 0)  -->
<svg version="1.1" id="layer" xmlns="http://www.w3.org/2000/svg" xmlns:xlink="http://www.w3.org/1999/xlink" x="0px" y="0px"
	 viewBox="0 0 652 652" style="enable-background:new 0 0 652 652;" xml:space="preserve">
<path d="M383.5,298.7v-33h-36.6v32.5h-17v26.3c-1-6.7-3.6-11.9-8.8-17c-7.2-7.7-17.5-11.9-29.9-11.9c-11.9,0-21.7,3.6-28.4,10.8
	c-1.5,1.5-3.1,3.6-4.6,5.7v-13.9h-36.6v37.1c-7.2-24.8-29.9-41.3-59.8-41.3c-27.9,0-49.5,14.4-58.3,36.1v-29.4
	c-8.3-4.1-15-6.2-24.8-6.2c-33,0.5-57.8,25.8-57.8,59.3c0,32.5,24.8,57.3,56.7,57.3c9.3,0,16.5-1.5,25.3-6.2v-29.4
	c8.8,22.2,30.4,36.6,58.3,36.6c29.9,0,52.6-16.5,59.8-41.3v37.1h37.1v-58.8c0-14.4,7.2-22.2,19.1-22.2c6.2,0,12.4,3.6,14.4,8.3
	s2.6,5.2,2.6,17.5v55.2h36.6v-69.6c0-3.1,0-5.2-0.5-7.7h16v76.9H383v-76.9h25.8v-32L383.5,298.7L383.5,298.7z M84.3,379.7
	c-14.4,0-25.3-10.8-25.3-26.3c0-15.5,10.3-26.3,25.3-26.3c6.2,0,11.3,1.5,18.1,6.2c-2.1,6.2-3.1,12.9-3.1,19.6
	c0,7.2,1,13.9,3.1,20.1C96.7,377.6,91,379.7,84.3,379.7z M161.7,377.6c-12.9,0-23.7-10.8-23.7-24.8s10.8-24.8,23.7-24.8
	s23.7,10.8,23.7,24.8C184.9,366.8,174.6,377.6,161.7,377.6z M414,298.7h36.6v109.4H414C414,408.1,414,298.7,414,298.7z M432,278.1
	c-11.9,0-21.7-9.8-21.7-21.7c0-11.9,9.8-21.7,21.7-21.7c11.9,0,21.7,9.8,21.7,21.7C453.7,268.3,443.9,278.1,432,278.1L432,278.1z
	 M599.2,278.1c11.9,0,21.7-9.8,21.7-21.7c0-11.9-9.8-21.7-21.7-21.7c-11.9,0-21.7,9.8-21.7,21.7
	C577.5,268.3,586.8,278.1,599.2,278.1L599.2,278.1z M580.6,298.7h-44.9l-38.2,39.2V231.1h-36.6v176.4h36.6v-44.4l40.2,44.4h80V298.7
	L580.6,298.7L580.6,298.7z M534.2,348.7l46.9-45.4v94.9C581.1,398.3,534.2,348.7,534.2,348.7z"/>
</svg>
