<?xml version="1.0" encoding="utf-8"?>
<!-- Generator: Adobe Illustrator 19.2.1, SVG Export Plug-In . SVG Version: 6.00 Build 0)  -->
<svg version="1.1" id="layer" xmlns="http://www.w3.org/2000/svg" xmlns:xlink="http://www.w3.org/1999/xlink" x="0px" y="0px"
	 viewBox="0 0 652 652" style="enable-background:new 0 0 652 652;" xml:space="preserve">
<style type="text/css">
	.st0{fill:#49207A;}
</style>
<g>
	<g>
		<path class="st0" d="M487.3,330.8c12.4-26,18.8-55.4,17.1-86.2c-5.2-98.1-88.9-173.5-187-168.4c-98.1,5.2-173.6,88.9-168.4,187
			c0.6,11.5,2.3,22.8,5.1,34c2.7,10.9,6.5,21.5,11.2,31.6c4.6,10,10.2,19.5,16.6,28.5c6.3,8.9,13.5,17.2,21.4,24.7
			c7.9,7.6,16.4,14.4,25.5,20.4c9.1,6,18.8,11.2,28.9,15.5c10.2,4.3,20.9,7.7,31.7,10c11.3,2.4,22.6,3.5,34.1,3.9
			c15.2,0.6,30.8-1.5,45.1-6.7c6.6-2.4,12.8-5.5,18.7-9.3c14.9-9.8,25.6-25.3,29.2-43c1.3-6.4,1.8-12.9,1.5-19.2
			c-0.7-13-5-25.5-12.7-35.7c-7.7-10.3-18.7-18.3-31.6-22.7c-13.4-4.6-26.4-5-38.2-4.4c-13.4,0.7-25.6,2.7-35.4,3.2
			c-5.6,0.3-10.4,0.1-13.8-0.6c-2.7-0.5-5.4-2-7.1-3.8c-1.7-1.9-2.6-3.7-2.8-6.5c-0.2-2.1,0.7-4.6,2.6-6.7c1.9-2.1,4.5-3.4,7.4-3.6
			c3.2-0.2,7.7,1.7,9.6,2.3c4.5,1.3,9.1,2.3,13.9,3c5.4,0.8,10.9,1.3,16.6,1.3c41,0,75-23.2,80.8-53.3c1-4.4,1.3-9,0.8-13.6
			c-0.2-2.7-0.7-5.3-1.5-7.9c-2.1-8.1-6.2-15.6-12-22.2c20.2,1.8,34.3-2.8,42.7-11.2c15.8,21.1,25.7,47,27.2,75.4
			c1.2,23.4-3.4,45.7-12.7,65.5L427.1,299l18.4,59.5l59.5-18.4L487.3,330.8z M326.7,248.3c-17.3,0-31.3-14.1-31.3-31.4
			c0-17.3,14-31.3,31.3-31.3c17.3,0,31.4,14,31.4,31.3C358.1,234.2,344,248.3,326.7,248.3 M393.8,156.4c-5.5,3.3-11.3,4.8-17,5.1
			c-8.4,0.4-13.5-0.4-15.2-1c-2.6-0.9-5.3-1.8-8.1-2.5c-0.5-0.1-1-0.3-1.4-0.4c-0.8-0.2-1.5-0.4-2.3-0.5c-0.8-0.2-1.6-0.3-2.4-0.5
			c-0.5-0.1-0.9-0.2-1.4-0.3c-2.6-0.5-5.3-0.9-8.1-1.2c-3.6-0.4-7.4-0.6-11.1-0.6c-45.1,0-81.7,28-81.7,62.5c0,5.8,1,11.3,2.9,16.6
			c1.4,4.3,3.4,8.4,5.9,12.2c-1.4,1.3-2.8,2.6-4,4c-8.5,9.3-13.6,21.9-12.9,35.6c0.6,12.5,6,23.7,13.7,31.8
			c7.7,8.1,17.6,13.3,28.3,15.4c8.1,1.6,15.9,1.6,23.4,1.3c12.8-0.7,24.9-2.7,35.4-3.2c9.3-0.5,17.1,0.1,23,2.2c6,2.1,10,5.3,12.9,9
			c2.8,3.8,4.6,8.4,4.8,14c0.1,2.7-0.1,5.7-0.7,8.9c-1.8,8.1-5.4,13.3-12.4,18.2c-7,4.8-18.3,8.5-33.9,9.3c-0.2,0-0.3,0-0.4,0
			l-2-0.1h-0.5c-73.7,0.9-135.7-56.7-139.6-131c-2-38.2,11.6-73.4,35.3-99.7c23.7-26.3,57.3-43.5,95.4-45.5
			c32.8-1.7,63.4,8.1,88,25.9C403,149.4,398.3,153.6,393.8,156.4"/>
		<path class="st0" d="M194.4,507.6c-3.1-3.7-8.7-5.7-15.9-5.7c-8.1,0-16.4,3.2-23.2,8.9c-8.3,7-13.8,16.9-16,28.8
			c-4.1,21.1,5.8,36.5,23.5,36.5c8.5,0,16.7-3.5,22.5-9.5l-0.8,7.9h20.6l0.2-1.4c0.6-4.6,1.9-12.6,3.4-20.3l14.4-74.2h-23
			L194.4,507.6z M189.4,533.7l-1.7,9c-0.4,1.9-0.8,3.2-1.4,4.6c-2.2,5.5-7.3,9.2-12.8,9.2c-8.2,0-11.9-6.7-9.8-17.6
			c1.6-8.4,7-18.1,16.9-18.1c6.3,0,9.2,4.7,9.3,9.3C189.7,531.1,189.6,532.6,189.4,533.7"/>
		<path class="st0" d="M613.9,506.4c-6.6-4.2-11.1-4.6-16.4-4.6c-6.2,0-14.3,3.5-20.1,11.1l1.3-9.5h-21l-0.2,1.4
			c-0.9,5.9-1.9,12.6-3.8,22.5l-9.2,47.3h24l7-36.1c0.3-1.6,0.8-3.2,1.3-4.5c2.5-6.1,8.1-9.7,15.1-9.7c2.2,0,3.9,0.3,5.4,0.5
			c0,0,0.6,0.1,1.5,0.3C601.7,517.1,609.8,509.2,613.9,506.4"/>
		<path class="st0" d="M707.4,530.1c-8.1-3.1-9.3-4.5-8.9-6.6c0.7-3.7,5.5-5.2,8-5.2c4.3,0,9.3,0.3,13.8,3l1.2,0.7l7.2-15.5
			l-0.9-0.5c-3.6-2-10.5-4.1-19.2-4.1c-17.2,0-31.1,9.8-33.8,23.7c-1.4,6.8,0.2,16.2,16.2,21.9c7.7,2.8,8.8,4.3,8.4,6.7
			c-0.2,1.1-1.3,4.3-9.1,4.3c-5,0-12.6-0.7-16.7-3l-1.7-0.7l-7.4,14.5c6.3,3.4,15.4,6.8,22.4,6.8c19.2,0,32.8-9,35.6-23.5
			C724.6,541.6,719.9,534.7,707.4,530.1"/>
		<path class="st0" d="M95.4,478.6l-27,53.6H46.8l-9.3,18.4h21.7l-12,23.9h25.5l11.1-23.9h25.4l2,23.9h24.7L125,478.6H95.4z
			 M92.2,532.1l4.4-9.4l10.1-22l2.2,31.4H92.2z"/>
		<path class="st0" d="M463.1,503.3l5.1-24.7l-25.4,5.5l-12.9,64.3c-2,9.9-1.4,16.9,2,21.3c3.1,4.1,8.9,6.4,15.8,6.4
			c6,0,11.4-0.7,14.7-1.9l1.2-0.4l3.7-19.3l-2.3,0.4c-2,0.4-4,0.5-6,0.5c-2.1,0-3.3-0.4-4-1.3c-1.1-1.3-1-4.1-0.1-8.6l4.5-23h14.9
			l3.7-19.1H463.1z"/>
		<path class="st0" d="M423,508c-3.3-4.1-8.5-6.1-15.4-6.1c-9.2,0-16.2,4.1-20.4,7.5l-0.8,0.7l1.1-6.6h-21.6l-0.3,1.8
			c-0.9,5.8-2,12.9-3.7,21.4l-9.3,47.9h23.8l8-40.8c1.4-7.3,5.5-11.2,11.9-11.2c2.4,0,4.1,0.7,5.2,2c1.6,2,2,5.6,1,10.6l-7.6,39.3
			H418l8.1-41.7C428.3,521.6,427.3,513.3,423,508"/>
		<polygon class="st0" points="274.6,503.3 250.8,545.7 250.8,545.3 244.1,503.3 222,503.3 233.9,574.5 256.9,574.5 297.5,503.3 		
			"/>
		<path class="st0" d="M-27,535.7h16.8l-3.1,15.9c-1.7,0.7-6.5,2.4-11.3,2.2c-10.7-0.4-17.6-3-21.2-7.9c-3.4-4.6-3.9-11.4-1.5-20.7
			c4.5-17.5,18.2-28.2,36.8-28.6c7.2-0.2,17.7,1.5,28.3,5.4c0,0,4.1-21,4.4-22.8c-4.4-2.4-15.4-5.3-28.2-5.3
			c-34.3,0-60.8,20.4-67.6,52c-3.3,14.8-0.9,27.8,6.6,36.6c7.5,9.1,19.4,13.7,35.4,13.7c0.8,0,1.6,0,2.4,0
			c20.9-0.6,35.7-9.1,36.3-9.4l0.4-0.2l9.7-49.6l-34.5,0L-27,535.7z"/>
		<path class="st0" d="M479.9,569.9c3.3,4.1,8.5,6.2,15.4,6.2c9.2,0,16.2-4.1,20.4-7.5l0.8-0.7l-1.1,6.6H537l0.3-1.8
			c0.9-5.8,2-12.9,3.7-21.5l9.4-47.9h-23.8l-8,40.8c-1.4,7.3-5.6,11.2-11.9,11.2c-2.4,0-4.1-0.7-5.2-2c-1.6-2-2-5.6-1-10.7l7.7-39.4
			h-23.3l-8.1,41.8C474.5,556.2,475.6,564.6,479.9,569.9"/>
		<path class="st0" d="M329,501.8c-17.2,0-38,11.7-43,37.4c-1.4,7.2-1.6,15.3,2.1,22c8,14.7,29.9,16.6,44.4,12.5
			c4-1.1,7.8-2.8,11.4-4.8c0,0-7.3-15.6-7.3-15.7c-14.2,7.8-30.8,4.6-30-6.6H351l0.4-1.1c0.7-1.9,1.7-5.1,2.4-8.5
			C357.1,519.9,352.3,501.8,329,501.8 M335.8,530.2h-25.4c2.2-5.4,7.6-13.1,15.8-13.1C335.6,517.1,336.6,526,335.8,530.2"/>
		<path class="st0" d="M643.7,501.9c-17.3,0-38.3,11.8-43.3,37.6c-1.4,7.3-1.6,15.4,2.1,22.1c8.1,14.8,30.1,16.7,44.7,12.6
			c4-1.1,7.9-2.8,11.5-4.9c0,0-7.4-15.7-7.4-15.8c-14.3,7.8-31,4.7-30.2-6.7h44.9l0.4-1.1c0.7-1.9,1.7-5.2,2.4-8.6
			C672,520.1,667.2,501.9,643.7,501.9 M650.6,530.4H625c2.2-5.4,7.6-13.2,15.9-13.2C650.3,517.2,651.3,526.2,650.6,530.4"/>
	</g>
</g>
</svg>
